PathFileType	4	(X/Y/Z)	C:\Users\preethimanoharan\Documents\OpenSim\4.3\Models\Opensim Spine models\FBLS model Full body musculoskeletal model of lumar spine\Ha Pilot data\test_data_markers.trc
DataRate	CameraRate	NumFrames	NumMarkers	Units	OrigDataRate	OrigDataStartFrame	OrigNumFrames
100.000000	100.000000	4	41	mm	100.000000	0	1854
Frame#	Time	RFHD			LFHD			LBHD			RBHD			LSHO			LUPA			LELB			LFRM			LWRA			LWRB			LFIN			RSHO			RUPA			RELB			RFRM			RWRA			RWRB			RFIN			LTHI			LKNE			LTIB			LANK			LHEE			LTOE			LMT5			RTHI			RKNE			RTIB			RANK			RHEE			RTOE			RMT5			CLAV			STRN			LASI			RASI			C7			LPSI			RPSI			RBAK			T10			
		X1	Y1	Z1	X2	Y2	Z2	X3	Y3	Z3	X4	Y4	Z4	X5	Y5	Z5	X6	Y6	Z6	X7	Y7	Z7	X8	Y8	Z8	X9	Y9	Z9	X10	Y10	Z10	X11	Y11	Z11	X12	Y12	Z12	X13	Y13	Z13	X14	Y14	Z14	X15	Y15	Z15	X16	Y16	Z16	X17	Y17	Z17	X18	Y18	Z18	X19	Y19	Z19	X20	Y20	Z20	X21	Y21	Z21	X22	Y22	Z22	X23	Y23	Z23	X24	Y24	Z24	X25	Y25	Z25	X26	Y26	Z26	X27	Y27	Z27	X28	Y28	Z28	X29	Y29	Z29	X30	Y30	Z30	X31	Y31	Z31	X32	Y32	Z32	X33	Y33	Z33	X34	Y34	Z34	X35	Y35	Z35	X36	Y36	Z36	X37	Y37	Z37	X38	Y38	Z38	X39	Y39	Z39	X40	Y40	Z40	X41	Y41	Z41	

1	0	1015.943115234375	1680.479614257812	-763.8884277343749	947.95361328125	1689.218505859375	-647.7533569335936	1063.980712890625	1666.181396484375	-575.1169433593749	1130.818725585938	1669.260375976562	-687.5496826171874	953.2763061523438	1485.566772460938	-555.9555664062499	759.4540405273438	1470.690063476562	-611.3870239257811	605.7977294921875	1459.040649414062	-604.3776245117186	511.8268737792969	1497.57568359375	-617.6879882812499	380.80712890625	1514.881469726562	-708.4320068359374	374.1174011230469	1511.236328125	-633.8038330078124	292.1240234375	1521.933959960938	-665.5408325195311	1170.623901367188	1467.791137695312	-597.6392211914061	1352.893920898438	1407.914184570312	-586.7977294921874	1465.7314453125	1417.314575195312	-612.5521240234374	1611.88134765625	1413.437622070312	-639.7364501953124	1704.624877929688	1425.464233398438	-721.6270751953124	1718.290893554688	1401.01318359375	-656.2231445312499	1783.337158203125	1428.444091796875	-687.7426147460936	846.473876953125	623.3390502929688	-643.5474853515625	865.577880859375	470.7957458496094	-632.873046875	837.617431640625	261.3539428710938	-579.6607666015625	856.0532836914062	71.79594421386722	-573.4776000976562	897.8079833984375	38.33082962036136	-521.2659912109375	880.7274169921875	44.28832626342778	-700.6729125976562	820.7681274414062	21.87619400024418	-666.1307983398438	1213.533081054688	612.432861328125	-653.24365234375	1205.42333984375	473.0970764160157	-638.2853393554688	1235.305908203125	337.5067749023438	-584.6187133789062	1202.048583984375	74.21457672119143	-560.106201171875	1159.678466796875	43.29187393188479	-521.73681640625	1179.433227539062	49.33590316772465	-687.2445678710938	1240.094970703125	14.44702911376957	-650.1881103515625	1032.275390625	1408.145141601562	-715.1969604492186	1028.600219726562	1239.324096679688	-745.6422119140624	912.0839233398438	960.1956176757812	-720.1638183593749	1160.552978515625	970.2686767578125	-708.3626098632811	1059.412719726562	1489.042358398438	-582.1467285156249	968.1671752929688	1003.019653320312	-567.7385864257811	1095.145874023438	993.989990234375	-569.5927124023436	1120.265502929688	1318.166748046875	-535.0200195312499	1036.2392578125	1111.647338867188	-570.0567626953124	
2	0.01	1015.828002929688	1680.451049804688	-763.6869506835936	947.9954833984375	1689.216674804688	-647.6889038085936	1063.998291015625	1666.179077148438	-574.9758911132811	1130.7802734375	1669.285278320312	-687.4628906249999	953.4390869140625	1485.624267578125	-555.9529418945311	759.4766845703125	1470.605590820312	-611.8582153320311	606.20654296875	1459.106201171875	-603.1593017578124	511.84521484375	1497.551879882812	-617.7516479492186	380.922607421875	1514.96875	-708.4856567382811	374.1494445800781	1511.256103515625	-633.9248657226561	275.5588073730469	1517.505004882812	-670.6428222656249	1170.62841796875	1467.815551757812	-597.5297241210936	1352.88134765625	1407.838012695312	-586.7289428710936	1470.0732421875	1417.25927734375	-610.4380493164061	1611.922729492188	1413.380249023438	-639.7303466796874	1704.664306640625	1425.433227539062	-721.5011596679686	1718.201293945312	1400.906982421875	-656.1921997070311	1782.706420898438	1425.750610351562	-688.7918090820311	846.5618896484375	623.216796875	-643.5573120117188	865.645751953125	470.7355346679688	-632.8536376953125	837.673828125	261.3682250976563	-579.639892578125	856.0532836914062	71.83696746826175	-573.439453125	897.7737426757812	38.32933425903323	-521.2183227539062	880.7349243164062	44.29750442504887	-700.6248779296875	820.74169921875	21.84834861755375	-666.120361328125	1213.519165039062	612.4095458984375	-653.325927734375	1205.427734375	473.0786743164063	-638.32958984375	1235.2578125	337.4863281250001	-584.6622314453125	1202.019409179688	74.24420166015628	-560.0958862304688	1159.71337890625	43.33609390258792	-521.696044921875	1176.827270507812	48.91671752929692	-683.1466674804688	1240.094482421875	14.49158382415775	-650.1461181640625	1032.245239257812	1408.25927734375	-715.0427246093749	1028.617065429688	1239.33837890625	-745.6832885742186	912.0996704101562	960.157470703125	-720.1848144531249	1160.430053710938	970.2525634765625	-708.4091796874999	1059.458862304688	1489.049438476562	-582.1283569335936	967.8618774414062	1002.358703613281	-568.1070556640624	1095.231323242188	993.9713134765625	-569.5759887695311	1120.256713867188	1318.090454101562	-535.0571899414061	1036.328369140625	1111.635498046875	-570.1184082031249	
3	0.02	1015.859191894531	1680.498779296875	-763.6657714843749	947.9644775390625	1689.239868164062	-647.6748657226561	1063.950561523438	1666.177856445312	-574.9257202148436	1130.80078125	1669.363159179688	-687.5056152343749	953.197265625	1485.541137695312	-555.9417114257811	759.4840698242188	1470.58837890625	-611.9213867187499	604.681884765625	1458.048217773438	-605.4394531249999	511.888916015625	1497.559448242188	-617.8471069335936	380.9599609375	1515.034790039062	-708.6712036132811	374.1927795410156	1511.248168945312	-634.0679931640624	291.01904296875	1521.51171875	-665.9422607421874	1170.673217773438	1467.831665039062	-597.6116333007811	1352.841064453125	1407.814208984375	-586.7642211914061	1465.985717773438	1417.236328125	-612.3600463867186	1611.908447265625	1413.276611328125	-639.6806030273436	1704.691528320312	1425.393798828125	-721.4838867187499	1718.184814453125	1400.805908203125	-656.1643066406249	1782.723022460938	1425.458251953125	-688.7421264648436	846.5200805664062	623.2058715820312	-643.6290893554688	865.720703125	470.9044189453126	-633.1104736328125	837.7078247070312	261.3516845703126	-579.6691284179688	856.05029296875	71.80979156494143	-573.485107421875	897.8199462890625	38.38987731933597	-521.2261352539062	880.7305908203125	44.36991500854496	-700.6333618164062	820.74365234375	21.93085861206059	-666.1383056640625	1213.53857421875	612.4329223632812	-653.3854370117188	1205.4560546875	473.0966491699219	-638.3872680664062	1235.301879882812	337.4957580566407	-584.6826782226562	1202.056884765625	74.29418945312503	-560.0820922851562	1159.755004882812	42.8046798706055	-521.5679931640625	1176.775390625	48.96449661254887	-683.06787109375	1240.087158203125	14.4915809631348	-650.1505737304688	1032.30712890625	1408.220581054688	-715.1758422851561	1029.358154296875	1238.500610351562	-747.6079101562499	914.0667724609375	961.9080200195312	-718.6128540039061	1160.43115234375	970.2999267578125	-708.5181274414061	1059.499267578125	1489.071044921875	-582.1622314453124	967.8192138671875	1002.329040527344	-568.2309570312499	1095.275390625	994.1294555664062	-569.5751342773436	1124.695068359375	1313.538208007812	-537.7228393554686	1036.383544921875	1111.620971679688	-570.2222900390624	
4	0.03	1006.635437011719	1679.87451171875	-752.6785888671874	946.7459716796875	1686.84375	-649.0092163085936	1061.411743164062	1669.421142578125	-571.9514770507811	1130.521484375	1668.429443359375	-686.9980468749999	948.899169921875	1484.2509765625	-556.9445190429686	759.8817749023438	1469.931884765625	-611.6924438476561	604.8533935546875	1459.978881835938	-603.5786132812499	511.2478637695312	1497.422485351562	-618.8472900390624	381.3750610351562	1514.521362304688	-709.2078857421874	368.2666320800781	1511.816162109375	-639.7164306640624	292.1965026855469	1518.702270507812	-675.2899169921874	1169.502807617188	1469.136840820312	-596.9605712890624	1344.88134765625	1402.693481445312	-591.5170898437499	1463.725463867188	1416.168334960938	-613.5572509765624	1611.929321289062	1413.255249023438	-639.6896972656249	1704.359619140625	1426.72509765625	-720.8930053710936	1716.674438476562	1401.24072265625	-655.4982299804686	1781.8818359375	1424.618896484375	-689.1667480468749	846.778076171875	622.9788208007812	-644.6708984375	860.423828125	473.9142456054688	-629.8905029296875	837.864990234375	261.2443237304688	-580.7687377929688	851.2881469726562	77.03775787353518	-570.2913818359375	899.3699340820312	37.56032943725589	-522.6978149414062	881.9074096679688	43.4387702941895	-701.3997192382812	821.22998046875	21.82907295227055	-667.1177368164062	1213.548095703125	612.416259765625	-653.4655151367188	1205.476928710938	473.0852661132813	-638.4152221679688	1233.055053710938	335.3679809570313	-586.904052734375	1204.357788085938	76.47611999511722	-558.99267578125	1154.5615234375	48.54888916015628	-518.7354125976562	1175.211059570312	49.86468124389653	-682.9725952148438	1240.12158203125	14.49865531921391	-650.1434326171875	1031.564086914062	1409.161743164062	-713.3619995117186	1028.664672851562	1239.35791015625	-745.8038940429686	912.2324829101562	960.0428466796875	-720.5581665039061	1161.621215820312	971.1873779296875	-707.7829589843749	1059.73974609375	1488.59228515625	-582.7957763671874	971.2332763671875	1000.296447753906	-569.4686279296874	1090.061157226562	998.79736328125	-565.0784301757811	1120.358032226562	1318.1357421875	-535.2152099609374	1038.270874023438	1108.835571289062	-572.6856689453124	
